<svg xmlns="http://www.w3.org/2000/svg" width="1024" height="1024" viewBox="0 0 1024 1024" role="img" aria-labelledby="title desc">
  <title id="title">Ghost Launcher Icon v2</title>
  <desc id="desc">Balanced visibility with cleaner play badge.</desc>
  <g transform="translate(512 538) scale(1.28) translate(-512 -512)">
    <path
      d="M512 152c-179 0-304 129-304 305v231c0 22 17 40 38 40 9 0 17-3 24-8l58-43 66 48c14 10 32 10 46 0l72-52 72 52c14 10 32 10 46 0l66-48 58 43c18 14 43 10 56-8 5-7 8-15 8-24V457c0-176-125-305-304-305z"
      fill="#0F172A"
      stroke="#7DD3FC"
      stroke-width="40"
      stroke-linejoin="round"
    />
    <circle cx="392" cy="428" r="34" fill="#F8FAFC" />
    <circle cx="632" cy="428" r="34" fill="#F8FAFC" />
    <circle cx="700" cy="700" r="154" fill="#F8FAFC" />
    <circle cx="700" cy="700" r="122" fill="#22C55E" />
    <path fill="#FFFFFF" d="M650 646L650 754L800 700Z" />
  </g>
</svg>
